<?xml version="1.0" encoding="utf-8"?>
<!-- Generator: Adobe Illustrator 28.2.0, SVG Export Plug-In . SVG Version: 6.00 Build 0)  -->
<svg version="1.1" id="Layer_2_copy" xmlns="http://www.w3.org/2000/svg" xmlns:xlink="http://www.w3.org/1999/xlink" x="0px"
	 y="0px" viewBox="0 0 334.37 126.41" style="enable-background:new 0 0 334.37 126.41;" xml:space="preserve">
<g>
	<path d="M267.96,83.6c8.49,6.78,23.81,15.22,32.13,19.62h4.72c-3.36-1.99-6.9-3.96-9.78-5.28c-8.84-4.06-27.72-18.11-38.07-27.48
		c-5.8-5.26-12.88-12.77-19.13-19.4c-4.49-4.76-8.72-9.25-11.97-12.39c-1.96-1.89-3.76-3.16-5.43-3.95
		C229.91,45.6,257.64,75.37,267.96,83.6z"/>
	<path d="M106.61,89.6H128l-9.88-24.31L106.61,89.6z M107.79,88.85l10.28-21.69l8.82,21.69H107.79z"/>
	<path d="M193.58,99.02h17.06l-7.87-20.56L193.58,99.02z M194.74,98.27l7.98-17.85l6.83,17.85H194.74z"/>
	<path d="M233.61,112.01c-0.16-0.32-0.51-0.98-1-1.92l-1.23-2.37h89.03l-1.38-0.92c-0.13-0.09-13.7-9.09-22.12-12.96
		c-8.34-3.83-27.02-17.75-36.92-26.72c-5.66-5.13-12.68-12.57-18.88-19.15c-4.52-4.79-8.78-9.32-12.12-12.54
		c-7.38-7.11-14.54-8.28-21.88-3.56c-5.78,3.71-26.04,22.43-29.13,25.29c-2.32-2.31-16.57-16.57-24.34-25.49
		c-8.17-9.38-16.74-21.51-19.17-25.01c-1.35-1.95-3.9-1.43-6.15-0.98c-1.08,0.22-2.2,0.44-2.84,0.27l-0.23-0.06
		c-2.09-0.58-5.24-1.47-8.1,2.19c-3.12,3.99-14.06,18.39-21.34,28.68c-4.68,6.62-9.6,11.38-14.35,15.99
		c-2.92,2.83-5.94,5.75-8.92,9.11c-5.08,5.72-8.91,8.35-12.99,11.15c-2.19,1.5-4.45,3.06-6.98,5.15
		c-6.95,5.74-35.96,25.07-37.22,25.91L13.96,105l19.24-0.08c17.51-10.69,29.21-13.89,38.17-22.7c9.17-9.01,14.06-15.59,27.06-25.83
		c-3.82,6.73-8.87,12.69-13.76,16.51c-4.89,3.82-4.28,8.87-21.71,20.64c-7.16,4.83-12.69,8.51-16.73,11.16h13.95
		c8.69-9.5,17.62-16.3,26.78-21.56c10.07-5.77,15.84-17.72,16.19-18.46c-0.25,0.95-5.64,20.05-17.87,28.4
		c-6.55,4.47-12.09,8.53-16.18,11.62h22.13c-0.72,1.45-1.28,2.61-1.66,3.39c-4.13,8.54-11.14,8.01-11.44,7.99l-0.41-0.04v5.09h30.73
		v-5.45h-6.51c-1.31,0-2.53-0.65-3.25-1.75c-0.72-1.1-0.85-2.47-0.33-3.68l5.96-13.89h26.1c0.4,0.93,1.98,4.56,3.46,8.05
		c1.2,2.85,2.01,4.81,2.46,5.99c0.64,1.66,0.64,3.03,0,3.97c-0.64,0.93-1.88,1.42-3.6,1.42h-4.28v5.3h38.18v-5.41l-0.47,0.12
		c-3.39,0.87-7.04-1.53-9.31-6.1l0,0c-0.35-0.7-1.33-2.67-2.74-5.53l-0.06-0.11l29.63-0.32c-1.71,3.28-3.03,5.83-3.67,7.08
		c-3.26,6.39-8.79,6.01-9.02,5.99l-0.41-0.03v4.02h24.57v-4.3h-5.25c-1.06,0-2.02-0.51-2.57-1.37c-0.51-0.79-0.58-1.73-0.21-2.55
		l4.7-7.95h20.71c0.62,0.93,3.63,5.54,4.63,8.01c0.48,1.19,0.5,2.18,0.04,2.86c-0.48,0.71-1.46,1.08-2.83,1.08h-3.47v4.18h30.49
		v-4.28l-0.46,0.11C238.26,117.22,235.39,115.43,233.61,112.01z M99.48,39.36c-4.93,6.97-9.99,11.87-14.89,16.62
		c-2.87,2.77-5.83,5.64-8.7,8.87c-5.44,6.14-9.69,9.05-13.79,11.87c-2.11,1.45-4.29,2.95-6.68,4.92
		C48.86,87.07,27.37,100.7,22.19,104h-4.92c6.25-4.18,29.66-19.88,35.93-25.06c2.51-2.07,4.76-3.61,6.93-5.1
		c4.11-2.83,8-5.49,13.16-11.3c2.96-3.34,5.97-6.25,8.89-9.07c4.78-4.63,9.73-9.42,14.46-16.12c7.28-10.29,18.19-24.66,21.31-28.64
		c2.45-3.13,5-2.41,7.05-1.84l0.22,0.06c0.87,0.24,2.05,0,3.31-0.25c1.94-0.39,4.15-0.83,5.12,0.57
		c2.44,3.5,11.02,15.66,19.24,25.09c8.51,9.77,24.57,25.72,24.73,25.88l0.34,0.34l0.35-0.33c0.23-0.22,23.22-21.58,29.34-25.51
		c6.9-4.43,13.66-3.31,20.65,3.44c3.31,3.19,7.56,7.7,12.06,12.48l0.07,0.07c6.19,6.57,13.21,14.01,18.89,19.16
		c9.96,9.02,28.76,23.02,37.18,26.89c6.73,3.09,16.73,9.46,20.58,11.96h-86.22c-0.55-1.05-1.16-2.22-1.82-3.48l1.32-0.02h11.34
		c-13.19-19.04-14.79-22.03-23.11-34.91c-9.48-14.67-8.87-20.79-6.88-25.07c1.99-4.28-0.3,4.28,3.37,8.56
		c3.66,4.28,2.59,8.56,6.57,14.83c3.97,6.27,14.98,23.24,18.95,28.59c3.98,5.35-11.92-20.33-15.89-29.2
		c-3.98-8.87,13.29,11.01,20.33,20.33c3.86,5.12,9.24,11.62,13.71,16.87h8.3c-7.17-7.03-16.55-16.36-21.86-22.37
		c-9.33-10.55-17.12-16.05-24.15-33.78c7.49,10.51,36.1,38.62,53.7,56.15h11c-7.41-5.06-14.62-10.13-17.77-12.43
		c-6.73-4.9-28.59-29.2-38.98-39.44c-6.17-6.08-10.03-13.45-11.6-17.64c-3.19-0.55-5.76,0.61-7.85,1.95
		c-4.88,3.13-22.48,19.2-28.85,25.13c-1.57,1.46-4.02,1.42-5.54-0.09c-0.67-0.66-16.37-16.27-24.91-26.06
		c-6.87-7.9-14.62-18.53-18.26-23.8c-0.25-0.36-0.62-0.76-0.83-1.06c-0.54,0.04-1.39,0.21-1.94,0.32c-1.61,0.33-3.26,0.66-4.94,0.2
		l-0.23-0.07c-1.97-0.55-2.37-0.62-3.34,0.63C117.58,14.82,106.72,29.12,99.48,39.36z M120.86,23.87
		c-3.55,14.79-9.63,23.27-17.31,32.9C105.73,47.26,117.65,33.04,120.86,23.87z M156.19,110.03c2.33,4.7,6.09,7.24,9.7,6.6v3.71
		h-36.68v-3.8h3.53c1.98,0,3.44-0.6,4.22-1.74c0.79-1.15,0.82-2.77,0.08-4.67c-0.45-1.18-1.26-3.15-2.46-6.01
		c-1.72-4.05-3.56-8.28-3.56-8.28l-0.1-0.23h-27.08l-6.16,14.35c-0.61,1.44-0.46,3.08,0.4,4.39c0.86,1.3,2.31,2.08,3.88,2.08h5.76
		v3.95H78.48v-3.54c1.66-0.01,7.99-0.6,11.77-8.42c0.39-0.81,0.98-2.02,1.74-3.55c6.95-14.12,27.91-56.16,30.82-62l30.49,61.35
		l0.14,0.28C154.86,107.36,155.84,109.33,156.19,110.03z M158.35,86.66l2.14,7.34c-16.87-24.19-24.26-40.94-24.6-41.71
		c0.71,1.02,20.38,29.68,23.53,32.38c-17.43-27.06-29.96-57.78-32.41-62.22c25.46,34.14,48.27,78.09,49.05,79.46
		C175.38,101.03,158.35,86.66,158.35,86.66z M179.75,92.31c-0.46-1.98-31.18-44.02-36.84-52.58c-5.65-8.56-6.11-13.15-9.93-18.19
		c-3.75-4.94-2.37-6.23-1.87-11.42c4.72,6.95,24.86,36.04,33.81,46.58c10.25,12.07,18.96,15.74,20.95,13.45
		c1.98-2.29,17.88-22.01,14.21-15.29C196.42,61.59,180.21,94.3,179.75,92.31z M240.64,120h-28.99v-2.68h2.72
		c1.64,0,2.83-0.49,3.45-1.42c0.42-0.62,0.77-1.75,0.03-3.56c-1.14-2.81-4.67-8.08-4.82-8.31l-0.11-0.17h-21.54l-4.94,8.35
		c-0.49,1.09-0.4,2.29,0.25,3.3c0.69,1.07,1.89,1.71,3.2,1.71h4.5v2.8h-23.07v-2.48c1.44-0.03,6.38-0.57,9.35-6.4
		c0.65-1.27,2-3.88,3.76-7.25c6.78-13.01,19.8-37.83,22.05-42.11c2.19,4.19,14.74,28.18,21.78,41.63l0.11,0.19
		c0.72,1.39,1.39,2.66,1.98,3.79l1.58,3.04c0.49,0.94,0.83,1.6,1,1.92l0,0c1.85,3.54,4.82,5.48,7.7,5.04V120z"/>
</g>
</svg>
